<?xml version="1.0" encoding="UTF-8"?>
<!DOCTYPE svg PUBLIC "-//W3C//DTD SVG 1.1//EN" "http://www.w3.org/Graphics/SVG/1.1/DTD/svg11.dtd">
<svg xmlns="http://www.w3.org/2000/svg" version="1.1" width="48px" height="48px" style="shape-rendering:geometricPrecision; text-rendering:geometricPrecision; image-rendering:optimizeQuality; fill-rule:evenodd; clip-rule:evenodd" xmlns:xlink="http://www.w3.org/1999/xlink">
<g><path style="opacity:0.869" fill="#4da6ff" d="M 22.5,0.5 C 23.552,0.350549 24.552,0.517215 25.5,1C 32.1266,6.6201 37.6266,13.1201 42,20.5C 42.8673,24.9558 42.5339,29.2891 41,33.5C 32.5,25 24,16.5 15.5,8C 18.0386,5.63029 20.3719,3.13029 22.5,0.5 Z"/></g>
<g><path style="opacity:0.897" fill="#4da6ff" d="M 4.5,2.5 C 18.4141,14.9112 31.9141,27.9112 45,41.5C 45.6114,45.0876 44.1114,46.2542 40.5,45C 39,43.5 37.5,42 36,40.5C 28.8493,45.2093 21.3493,45.7093 13.5,42C 4.51048,33.7977 3.17714,24.4644 9.5,14C 7.33333,11.8333 5.16667,9.66667 3,7.5C 2.38715,5.5048 2.88715,3.83814 4.5,2.5 Z"/></g>
</svg>
