<?xml version="1.0" encoding="UTF-8"?>
<!DOCTYPE svg PUBLIC "-//W3C//DTD SVG 1.1//EN" "http://www.w3.org/Graphics/SVG/1.1/DTD/svg11.dtd">
<svg xmlns="http://www.w3.org/2000/svg" version="1.1" width="300px" height="300px" style="shape-rendering:geometricPrecision; text-rendering:geometricPrecision; image-rendering:optimizeQuality; fill-rule:evenodd; clip-rule:evenodd" xmlns:xlink="http://www.w3.org/1999/xlink">
<g><path style="opacity:0.982" fill="#4da6ff" d="M 158.5,34.5 C 159.552,34.3505 160.552,34.5172 161.5,35C 185.667,59.1667 209.833,83.3333 234,107.5C 257.564,137.641 262.898,170.641 250,206.5C 206.221,162.721 162.387,118.887 118.5,75C 132.035,61.6318 145.369,48.1318 158.5,34.5 Z"/></g>
<g><path style="opacity:0.983" fill="#4da6ff" d="M 60.5,45.5 C 61.2389,45.369 61.9056,45.5357 62.5,46C 132.693,117.193 203.193,188.027 274,258.5C 274.667,259.167 274.667,259.833 274,260.5C 269.5,265 265,269.5 260.5,274C 259.167,274.667 257.833,274.667 256.5,274C 246.319,263.652 235.986,253.486 225.5,243.5C 198.627,266.378 167.961,273.545 133.5,265C 88.785,249.615 65.4517,218.282 63.5,171C 63.3762,145.693 71.7095,123.693 88.5,105C 73.9859,90.6527 59.6526,76.1527 45.5,61.5C 50.5217,56.1463 55.5217,50.813 60.5,45.5 Z"/></g>
</svg>
