<svg xmlns="http://www.w3.org/2000/svg" viewBox="0 0 100 100" fill-rule="evenodd"><g class="t-group-origins"><path d="M58.446 17.095a1.5 1.5 0 1 0 0 3c16.491 0 29.908 13.415 29.908 29.905S74.937 79.905 58.446 79.905c-13.469 0-25.338-9.067-28.864-22.049a1.501 1.501 0 0 0-2.896.787c3.88 14.286 16.94 24.263 31.759 24.263 18.146 0 32.908-14.761 32.908-32.905.001-18.145-14.761-32.906-32.907-32.906z" stroke-width="0.5" stroke="black" fill="black" stroke-width-old="0"></path><path d="M46.654 42.604V23.506a1.5 1.5 0 0 0-1.5-1.5H10.146a1.5 1.5 0 0 0-1.5 1.5v19.098a1.5 1.5 0 0 0 1.5 1.5h35.008a1.5 1.5 0 0 0 1.5-1.5zm-3-1.5H11.646V25.006h32.008v16.098z" stroke-width="0.5" stroke="black" fill="black" stroke-width-old="0"></path><path d="M27.649 38.432c2.966 0 5.379-2.413 5.379-5.378s-2.413-5.377-5.379-5.377-5.378 2.412-5.378 5.377 2.413 5.378 5.378 5.378zm0-7.756a2.38 2.38 0 0 1 2.379 2.377c0 1.312-1.067 2.378-2.379 2.378s-2.378-1.067-2.378-2.378a2.38 2.38 0 0 1 2.378-2.377zm14.677 35.512a1.5 1.5 0 0 0 2.122 0l14.757-14.767a1.5 1.5 0 0 0 .439-1.06V29.026a1.5 1.5 0 1 0-3 0V49.74L42.326 64.067a1.5 1.5 0 0 0 0 2.121z" stroke-width="0.5" stroke="black" fill="black" stroke-width-old="0"></path></g></svg>
