<?xml version="1.0" encoding="UTF-8"?>
<!DOCTYPE svg PUBLIC "-//W3C//DTD SVG 1.1//EN" "http://www.w3.org/Graphics/SVG/1.1/DTD/svg11.dtd">
<svg xmlns="http://www.w3.org/2000/svg" version="1.1" width="240px" height="240px" style="shape-rendering:geometricPrecision; text-rendering:geometricPrecision; image-rendering:optimizeQuality; fill-rule:evenodd; clip-rule:evenodd" xmlns:xlink="http://www.w3.org/1999/xlink">
<g><path style="opacity:0.982" fill="#4da6ff" d="M 123.5,-0.5 C 124.5,-0.5 125.5,-0.5 126.5,-0.5C 150.465,23.9653 174.632,48.2986 199,72.5C 222.564,102.641 227.898,135.641 215,171.5C 171.221,127.721 127.387,83.8874 83.5,40C 97.0352,26.6318 110.369,13.1318 123.5,-0.5 Z"/></g>
<g><path style="opacity:0.983" fill="#4da6ff" d="M 239.5,223.5 C 239.5,224.167 239.5,224.833 239.5,225.5C 234.5,229.833 229.833,234.5 225.5,239.5C 224.167,239.5 222.833,239.5 221.5,239.5C 211.521,228.854 201.188,218.521 190.5,208.5C 163.627,231.378 132.961,238.545 98.5,230C 53.785,214.615 30.4517,183.282 28.5,136C 28.3762,110.693 36.7095,88.6933 53.5,70C 38.9859,55.6527 24.6526,41.1527 10.5,26.5C 15.5265,20.2917 21.1932,15.125 27.5,11C 97.728,82.3945 168.395,153.228 239.5,223.5 Z"/></g>
</svg>
